<svg width="60" height="47" viewBox="0 0 60 47" fill="none" xmlns="http://www.w3.org/2000/svg">
<path fillRule="evenodd" clipRule="evenodd" d="M37.3289 17.8477C37.3289 6.40224 29.7193 -0.871824 20.0874 1.70888C25.4348 8.5967 21.611 17.8477 37.3289 17.8477Z" fill="#76A713"/>
<path filRule="evenodd" clipRule="evenodd" d="M58.8287 8.63797C45.1329 4.96824 34.3125 15.3116 34.3125 31.5864C56.6624 31.5864 51.2251 18.432 58.8287 8.63797Z" fill="#76A713"/>
<path d="M3.51563 35.127C1.57711 35.127 0 36.7041 0 38.6426V43.3301C0.193711 47.9952 6.83942 47.9916 7.03126 43.3301V38.6426C7.03126 36.7041 5.45415 35.127 3.51563 35.127ZM4.6875 43.3301C4.62293 44.8852 2.40762 44.8839 2.34375 43.3301V38.6426C2.40832 37.0876 4.62364 37.0887 4.6875 38.6426V43.3301Z" fill="black"/>
<path d="M13.9868 41.7293C17.1405 39.9814 15.9594 35.1701 12.3052 35.127H9.96143C9.3142 35.127 8.78955 35.6516 8.78955 36.2988V45.6738C8.85143 47.2287 11.072 47.2275 11.1333 45.6738V42.1582H11.581L13.6008 46.1979C13.8913 46.7827 14.6065 47.0088 15.1731 46.722C15.752 46.4325 15.9866 45.7286 15.6972 45.1497L13.9868 41.7293ZM11.1332 37.4707H12.3051C13.8535 37.5342 13.862 39.737 12.3162 39.8143C12.3054 39.8142 12.2946 39.8143 12.2839 39.8145H11.1331V37.4707H11.1332Z" fill="black"/>
<path d="M21.0942 37.4708C21.7404 37.4708 22.2661 37.9965 22.2661 38.6427C22.3274 40.1965 24.5482 40.1973 24.6099 38.6427C24.4167 33.9786 17.7709 33.9803 17.5786 38.6427V43.3302C17.7723 47.9953 24.4179 47.9917 24.6099 43.3302V42.1583C24.6099 41.5111 24.0852 40.9865 23.438 40.9865H22.2662C20.7114 41.0483 20.7126 43.2687 22.2661 43.3302C22.2014 44.8852 19.9863 44.884 19.9224 43.3302V38.6427C19.9224 37.9965 20.4481 37.4708 21.0942 37.4708Z" fill="black"/>
<path d="M29.8833 35.127C27.9448 35.127 26.3677 36.7041 26.3677 38.6426V45.6738C26.4296 47.2287 28.6501 47.2275 28.7114 45.6738V43.33H31.0552V45.6738C31.1171 47.2287 33.3376 47.2275 33.3989 45.6738V38.6426C33.3989 36.7041 31.8218 35.127 29.8833 35.127ZM28.7114 40.9862V38.6426C28.776 37.0875 30.9912 37.0888 31.0552 38.6426V40.9862H28.7114Z" fill="black"/>
<path d="M41.6021 35.1271C40.9548 35.1271 40.4302 35.6517 40.4302 36.299V41.2003L37.35 35.7244C37.0888 35.26 36.5472 35.0303 36.0317 35.1653C35.5163 35.3003 35.1567 35.7661 35.1567 36.299V45.674C35.2186 47.2288 37.4392 47.2277 37.5005 45.674V40.7726L40.5806 46.2486C40.7918 46.624 41.1862 46.8461 41.6019 46.846C41.7005 46.846 41.8002 46.8336 41.899 46.8077C42.4144 46.6727 42.7739 46.2068 42.7739 45.674V36.299C42.7739 35.6517 42.2493 35.1271 41.6021 35.1271Z" fill="black"/>
<path d="M45.7036 35.127C45.0564 35.127 44.5317 35.6516 44.5317 36.2988V45.6738C44.5936 47.2287 46.8142 47.2275 46.8755 45.6738V36.2988C46.8755 35.6516 46.3508 35.127 45.7036 35.127Z" fill="black"/>
<path d="M52.1495 37.4709C52.7957 37.4709 53.3214 37.9966 53.3214 38.6427C53.3827 40.1965 55.6035 40.1974 55.6652 38.6427C55.472 33.9786 48.8261 33.9803 48.6338 38.6427V43.3302C48.8273 47.9948 55.4729 47.9923 55.6652 43.3302C55.6652 42.683 55.1405 42.1584 54.4933 42.1584C53.8461 42.1584 53.3214 42.683 53.3214 43.3302C53.3214 43.9764 52.7957 44.5021 52.1495 44.5021C51.5034 44.5021 50.9777 43.9764 50.9777 43.3302V38.6427C50.9775 37.9966 51.5034 37.4709 52.1495 37.4709Z" fill="black"/>
<path d="M13.2813 29.2675V24.58C13.0875 19.9149 6.44195 19.9185 6.25 24.58V29.2675C6.44371 33.9325 13.0894 33.929 13.2813 29.2675ZM8.59375 29.2675V24.58C8.65832 23.0249 10.8735 23.0262 10.9375 24.58V29.2675C10.8731 30.8225 8.65774 30.8213 8.59375 29.2675Z" fill="black"/>
<path d="M22.1357 29.2675V24.58C21.942 19.915 15.2964 19.9184 15.1045 24.58V29.2675C15.2981 33.9325 21.9438 33.929 22.1357 29.2675ZM17.4482 29.2675V24.58C17.4482 23.9338 17.9739 23.4081 18.6201 23.4081C19.2663 23.4081 19.792 23.9338 19.792 24.58V29.2675C19.7274 30.8225 17.5122 30.8213 17.4482 29.2675Z" fill="black"/>
<path d="M1.17204 23.4082H2.08364V31.6113C2.14552 33.1662 4.36611 33.165 4.4274 31.6113V22.2363C4.4274 21.5891 3.90275 21.0645 3.25552 21.0645H1.17204C-0.382803 21.1263 -0.381631 23.3469 1.17204 23.4082Z" fill="black"/>
<path d="M30.3423 21.188C29.7635 20.8984 29.0594 21.1332 28.77 21.7121L24.0825 31.0871C23.793 31.666 24.0276 32.3699 24.6065 32.6594C25.173 32.9463 25.8882 32.72 26.1789 32.1353L30.8664 22.7603C31.1558 22.1814 30.9212 21.4775 30.3423 21.188Z" fill="black"/>
<path d="M25.1315 23.4082C26.6863 23.3463 26.6851 21.1257 25.1315 21.0645H25.1308C23.5758 21.1266 23.5777 23.347 25.1315 23.4082Z" fill="black"/>
<path d="M29.8179 30.4392H29.817C29.1698 30.4392 28.6455 30.9639 28.6455 31.6111C28.7074 33.1653 30.9282 33.1653 30.9896 31.6111C30.9897 30.9639 30.4651 30.4392 29.8179 30.4392Z" fill="black"/>
<path d="M59.9389 8.26441C59.8137 7.89234 59.5105 7.60757 59.1314 7.50597C50.9828 5.26746 43.0461 7.94741 38.2711 14.4334C37.138 4.82684 29.3336 -2.09131 19.7839 0.57728C18.9896 0.771225 18.6457 1.79345 19.1616 2.4279C20.6733 4.37508 21.4129 6.58711 22.1282 8.72612C24.0995 15.5391 27.5196 18.6453 35.6312 18.9827C34.0087 22.6496 33.14 26.9406 33.14 31.5863C33.14 32.2335 33.6647 32.7582 34.3119 32.7582C41.7125 32.7582 46.7081 31.3712 50.0331 28.3933C55.6503 23.2731 55.0456 15.2669 59.7538 9.35671C59.9945 9.04651 60.064 8.63647 59.9389 8.26441ZM24.351 7.9828C23.7709 6.2482 23.1302 4.33242 22.0377 2.49727C28.4977 1.45935 33.6893 5.79668 35.3761 12.006C33.8814 10.0121 31.9721 7.92632 29.8247 5.97961C29.3452 5.54508 28.6039 5.58129 28.1694 6.06082C27.7348 6.54035 27.7711 7.28144 28.2506 7.71609C31.5037 10.6649 34.2268 14.0103 35.5582 16.6332C28.5795 16.2652 26.1137 13.993 24.351 7.9828ZM53.2342 17.7154C50.9576 24.5238 49.1389 29.9591 36.0273 30.3871C37.3154 27.5422 39.8649 23.9948 43.1961 20.443C43.6388 19.9709 43.615 19.2293 43.143 18.7865C42.671 18.3438 41.9294 18.3676 41.4866 18.8396C39.2962 21.175 37.4482 23.4793 36.0249 25.6313C37.9094 14.9374 46.1545 7.34777 56.8583 9.39444C55.1083 12.1112 54.158 14.953 53.2342 17.7154Z" fill="black"/>
<path d="M46.1024 14.7729H46.1016C45.4544 14.7729 44.9302 15.2976 44.9302 15.9448C44.9921 17.4991 47.2129 17.4991 47.2743 15.9448C47.2743 15.2976 46.7496 14.7729 46.1024 14.7729Z" fill="black"/>
</svg>
