<svg width="50" height="48" viewBox="0 0 50 48" fill="none" xmlns="http://www.w3.org/2000/svg">
<path d="M18.1417 39.2379L18.1822 39.2244C19.5897 38.7554 21.0639 38.5162 22.5469 38.5162H33.3024C34.8973 38.5162 36.1901 37.2234 36.1901 35.6285C36.1901 34.0336 34.8973 32.7408 33.3024 32.7408H25.5931C23.7525 32.7408 21.938 32.2489 20.3734 31.2783C18.4871 30.1086 15.4339 28.5295 11.6436 27.687C5.14603 26.2432 0.814453 32.0191 0.814453 32.0191V39.9601L3.34598 40.2132C6.45235 40.5242 9.49159 41.3158 12.3546 42.5606L20.0629 45.9122C22.9912 47.1854 26.3069 47.2344 29.2711 46.0488L35.468 43.57L36.578 43.2926C39.5212 42.5569 41.9581 40.5013 43.18 37.7246L49.1849 24.0776H48.6893C46.7293 24.0776 44.8831 25.0007 43.7073 26.5686L36.3165 35.0826" fill="#EAC583" fill-opacity="0.5"/>
<path d="M24.8332 47.7113C23.0915 47.7113 21.3506 47.3603 19.7385 46.6591L12.0297 43.308C9.24078 42.0949 6.29199 41.3266 3.26535 41.024L0.733817 40.7708C0.317024 40.7293 0 40.3787 0 39.9601V32.0191C0 31.8429 0.0573441 31.6713 0.163174 31.5305C0.352456 31.2774 4.88963 25.3499 11.8203 26.8922C15.7183 27.7584 18.8569 29.3794 20.8033 30.5869C22.2164 31.4634 23.8728 31.9263 25.5936 31.9263H33.3024C34.6311 31.9263 35.799 32.6294 36.4522 33.6839L43.0915 26.0348C44.3787 24.3159 46.4846 23.2632 48.6893 23.2632H49.1853C49.4609 23.2632 49.7173 23.4021 49.8674 23.6324C50.018 23.8627 50.0418 24.1541 49.9313 24.4059L43.9265 38.0528C42.6136 41.0375 39.9404 43.2921 36.7762 44.0833L35.7197 44.3471L29.5741 46.8055C28.0618 47.4102 26.4473 47.7113 24.8332 47.7113ZM1.62988 39.2225L3.42759 39.4025C6.62254 39.7219 9.73543 40.5335 12.68 41.8137L20.3884 45.1649C23.0989 46.3435 26.2249 46.3896 28.9695 45.2917L35.1654 42.8133C35.1999 42.7998 35.2349 42.7886 35.2708 42.7797L36.3808 42.5019C39.0602 41.8319 41.3236 39.9233 42.4346 37.3964L47.9116 24.949C46.5093 25.1555 45.2188 25.9113 44.3591 27.0572L37.0042 35.5339C37.0051 35.5656 37.0056 35.5968 37.0056 35.629C37.0056 37.6705 35.3444 39.3316 33.3029 39.3316H22.5474C21.1492 39.3316 19.7674 39.5559 18.441 39.9979L18.1417 39.2379L17.8885 38.4636L17.93 38.45C19.4187 37.954 20.9735 37.7018 22.5474 37.7018H33.3029C34.4456 37.7018 35.3761 36.7717 35.3761 35.6285C35.3761 34.4854 34.4461 33.5553 33.3029 33.5553H25.5941C23.5693 33.5553 21.6159 33.0075 19.945 31.9711C18.1063 30.8303 15.1421 29.2997 11.4679 28.4824C6.21926 27.3183 2.44248 31.3464 1.63034 32.3072V39.2225H1.62988Z" fill="black"/>
<path d="M28.2485 21.1903C28.2485 21.1903 24.6387 11.0828 37.6339 11.805C37.6339 11.805 38.356 26.2436 28.2485 21.1903Z" fill="#76A713"/>
<path d="M32.0894 23.0793C30.8362 23.0793 29.431 22.6923 27.8841 21.9189C27.6967 21.8247 27.5522 21.6615 27.4813 21.4643C27.4184 21.2876 25.9624 17.0996 28.2762 14.0026C29.9578 11.7513 33.1197 10.7373 37.6792 10.9913C38.0951 11.0142 38.4266 11.3475 38.4471 11.7643C38.4634 12.0879 38.7995 19.7249 34.9053 22.2676C34.0773 22.8089 33.1365 23.0793 32.0894 23.0793ZM28.9233 20.6112C31.0637 21.6149 32.7747 21.7133 34.0148 20.9035C36.324 19.3953 36.8233 14.9182 36.8354 12.5881C33.2628 12.5009 30.8306 13.3061 29.5816 14.9774C28.0953 16.9677 28.673 19.7053 28.9233 20.6112Z" fill="black"/>
<path d="M22.9104 11.0497C22.9104 11.0497 11.8444 15.1174 12.5055 0.835932C12.5055 0.835932 28.3586 -0.103484 22.9104 11.0497Z" fill="#76A713"/>
<path d="M19.6286 12.4033C18.1838 12.4033 16.5171 12.0938 15.0625 11.0285C12.5953 9.2205 11.4615 5.77846 11.6918 0.798384C11.7114 0.382057 12.0414 0.0473173 12.4578 0.0226081C12.8102 0.00256097 21.1526 -0.442671 23.9597 3.77095C25.2669 5.7323 25.1597 8.30113 23.6422 11.4075C23.5499 11.5963 23.3886 11.7422 23.1914 11.8145C23.0818 11.8551 21.5522 12.4033 19.6286 12.4033ZM22.9102 11.0499H22.9182H22.9102ZM13.2955 1.62591C13.2251 5.61482 14.1422 8.33377 16.0252 9.71375C18.2798 11.3655 21.3582 10.6634 22.3261 10.3814C23.4333 7.97851 23.527 6.06005 22.6039 4.67447C20.8883 2.09912 15.8569 1.59561 13.2955 1.62591Z" fill="black"/>
<path d="M25.9921 33.2689C25.9665 33.2689 25.9408 33.2675 25.9147 33.2651C25.4807 33.2241 25.1557 32.8488 25.1776 32.4129C25.2257 31.4544 25.3077 30.5453 25.4191 29.6837C25.7581 23.9176 25.5833 10.4898 17.0935 6.77498C16.6814 6.59456 16.4931 6.11436 16.6735 5.70176C16.8534 5.2901 17.335 5.10222 17.7467 5.28217C22.7496 7.47104 25.897 12.9206 26.8467 21.0415C26.932 21.7693 26.9959 22.4868 27.0434 23.1856C29.2794 17.5356 32.7 15.5393 32.9037 15.4251C33.2953 15.2036 33.7923 15.3444 34.0133 15.7356C34.2329 16.1272 34.0949 16.6228 33.7047 16.8438C33.6184 16.8941 28.3731 20.042 27.0565 29.7494C26.9562 31.4101 26.8117 32.4688 26.7982 32.5658C26.7418 32.9724 26.3945 33.2689 25.9921 33.2689Z" fill="black"/>
</svg>
